<svg xmlns="http://www.w3.org/2000/svg" xmlns:xlink="http://www.w3.org/1999/xlink" viewBox="0 0 2268.56 826.77"><defs><style>.cls-1{fill:#472401;}.cls-2{fill:#ffce00;}.cls-3{fill:#ffb703;}.cls-4{fill:#f9a115;}.cls-5{opacity:0.75;}.cls-16,.cls-6{fill:#ffca9f;}.cls-7{opacity:0.4;}.cls-8{fill:#fff;}.cls-9{fill:#f28475;}.cls-10{fill:#650000;}.cls-11{opacity:0.3;}.cls-12{fill:#b74729;}.cls-13{fill:#11116d;}.cls-14{fill:#1595ff;}.cls-15{fill:#640005;}.cls-16,.cls-17{font-size:330px;font-family:LuckiestGuy-Regular, Luckiest Guy;}.cls-17{fill:none;stroke:#3c2415;stroke-linecap:round;stroke-linejoin:round;stroke-width:49.32px;}.cls-18{fill:url(#linear-gradient);}.cls-19{letter-spacing:-0.01em;}.cls-20{fill:url(#linear-gradient-8);}</style><linearGradient id="linear-gradient" x1="1565.18" y1="327.98" x2="1565.18" y2="86.93" gradientUnits="userSpaceOnUse"><stop offset="0" stop-color="#fbb040"/><stop offset="1" stop-color="#f9c500"/></linearGradient><linearGradient id="linear-gradient-8" x1="1255.4" y1="665.72" x2="1255.4" y2="433.05" xlink:href="#linear-gradient"/></defs><g id="Layer_2" data-name="Layer 2"><g id="Layer_1-2" data-name="Layer 1"><circle class="cls-1" cx="430.73" cy="420.72" r="406.05"/><circle class="cls-2" cx="406.05" cy="406.05" r="406.05"/><path class="cls-3" d="M743.52,406.05c0,156.37-106.35,287.9-250.67,326.2A337.55,337.55,0,0,1,68.59,406.05c0-186.37,151.09-337.47,337.46-337.47A337.47,337.47,0,0,1,743.52,406.05Z"/><path class="cls-4" d="M743.52,406.05c0,156.37-106.35,287.9-250.67,326.2C612.83,672.76,695.3,549,695.3,406.05A364.3,364.3,0,0,0,492.88,79.86,337.71,337.71,0,0,1,743.52,406.05Z"/><g class="cls-5"><path class="cls-6" d="M590,431.48s5.93-34.79,43.34-34.82c35.92,0,52.1,34.82,48,61.06C677,485.29,662.57,500,641,506.74c-22.52,7.06-46,1.73-46,1.73"/><g class="cls-7"><path class="cls-8" d="M633.29,396.66c-37.4,0-43.34,34.82-43.34,34.82l.06.9c4.45-10.31,15.36-26.05,40.52-26.07,35.92,0,52.1,34.82,48,61.06-.28,1.79-.61,3.52-1,5.2a80.37,80.37,0,0,0,3.72-14.85C685.39,431.48,669.21,396.62,633.29,396.66Z"/></g><path class="cls-9" d="M590,446.87s3.42-18.88,25-18.9c20.71,0,30,18.9,27.68,33.14-2.47,15-10.79,22.94-23.22,26.61-13,3.83-26.52.94-26.52.94"/><path class="cls-10" d="M604.48,494.09A64.77,64.77,0,0,1,592,492.94a4.38,4.38,0,1,1,1.84-8.57c.11,0,12.65,2.6,24.36-.86s18.1-10.8,20.14-23.11a25.66,25.66,0,0,0-5.67-20.25c-3-3.56-8.53-7.8-17.65-7.8h0c-17.21,0-20.38,13.76-20.69,15.33a4.38,4.38,0,0,1-8.62-1.59c1.41-7.77,9.35-22.49,29.3-22.5h0c12.47,0,20.11,5.91,24.33,10.88a34.65,34.65,0,0,1,7.64,27.36c-2.58,15.57-11.43,25.7-26.31,30.09A57.51,57.51,0,0,1,604.48,494.09Z"/><path class="cls-10" d="M615.15,514.8A103.12,103.12,0,0,1,594,512.74a4.38,4.38,0,0,1,2-8.55c.22.05,22.64,5,43.71-1.64,21.65-6.79,33.49-21.25,37.27-45.5,2.25-14.43-2.31-30.78-11.62-41.64-8.06-9.4-19.13-14.37-32-14.37h-.05c-33.32,0-38.8,29.91-39,31.18a4.38,4.38,0,1,1-8.64-1.47c.06-.39,7-38.44,47.65-38.48h.06c15.52,0,28.89,6,38.67,17.43,11.07,12.92,16.29,31.58,13.62,48.7-4.29,27.54-18.46,44.73-43.31,52.52A91.49,91.49,0,0,1,615.15,514.8Z"/><path class="cls-6" d="M222.16,431.48s-5.94-34.79-43.34-34.82c-35.92,0-52.1,34.82-48,61.06,4.3,27.57,18.73,42.25,40.3,49,22.52,7.06,46,1.73,46,1.73"/><g class="cls-7"><path class="cls-8" d="M137.7,467.37c-4.09-26.24,12.09-61.1,48-61.06,15.32,0,25.36,5.86,31.87,12.75-5.33-10-16.45-22.38-38.76-22.4-35.92,0-52.1,34.82-48,61.06,2.25,14.4,7.28,25.26,14.63,33.34A70.69,70.69,0,0,1,137.7,467.37Z"/></g><g class="cls-11"><path class="cls-10" d="M130.81,457.72c4.29,27.57,18.73,42.26,40.28,49,22.53,7.06,46,1.72,46,1.72L218.18,492c-8.94,1.25-27,2.64-44.58-2.87-21.89-6.87-37.07-21.2-42.88-47.35A55.35,55.35,0,0,0,130.81,457.72Z"/></g><g class="cls-11"><path class="cls-10" d="M681.3,457.72C677,485.29,662.57,500,641,506.74c-22.52,7.06-46,1.72-46,1.72L593.93,492c8.93,1.25,27,2.64,44.57-2.87,21.9-6.87,37.08-21.2,42.89-47.35A55.7,55.7,0,0,1,681.3,457.72Z"/></g><path class="cls-9" d="M222.16,446.87s-3.42-18.88-25-18.9c-20.71,0-30,18.9-27.68,33.14,2.48,15,10.8,22.94,23.23,26.61,13,3.83,26.52.94,26.52.94"/><path class="cls-9" d="M169.49,461.12c2.48,15,10.8,22.92,23.23,26.6,1.42.41,2.85.75,4.26,1a63,63,0,0,0,22.26-.09l2.92-41.79a24.71,24.71,0,0,0-4.69-9.81c-3.59-4.6-9.78-9.09-20.29-9.1C176.46,428,167.14,446.87,169.49,461.12Z"/><g class="cls-11"><path class="cls-10" d="M194.12,475A22.76,22.76,0,0,0,203,489a83.37,83.37,0,0,0,22.26-.06l2.93-31.39a16.87,16.87,0,0,0-4.69-7.36c-.56,0-1.12,0-1.7,0C201.09,450.12,191.77,464.33,194.12,475Z"/></g><g class="cls-11"><path class="cls-10" d="M623.34,475a22.72,22.72,0,0,1-8.89,14,83.37,83.37,0,0,1-22.26-.06l-2.92-31.39a16.87,16.87,0,0,1,4.69-7.36c.56,0,1.12,0,1.7,0C616.37,450.12,625.7,464.33,623.34,475Z"/></g><path class="cls-10" d="M207.63,494.09a57.46,57.46,0,0,1-16.15-2.17c-14.88-4.39-23.74-14.52-26.31-30.09a34.65,34.65,0,0,1,7.64-27.36c4.21-5,11.86-10.88,24.33-10.88h0c19.95,0,27.88,14.73,29.29,22.5a4.38,4.38,0,0,1-8.62,1.59c-.31-1.59-3.49-15.31-20.68-15.33h0c-9.12,0-14.63,4.24-17.65,7.8a25.63,25.63,0,0,0-5.67,20.25c2,12.31,8.44,19.66,20.14,23.11s24.24.89,24.37.86a4.38,4.38,0,0,1,1.82,8.57A64.48,64.48,0,0,1,207.63,494.09Z"/><path class="cls-10" d="M197,514.8a91.59,91.59,0,0,1-27.18-3.88c-24.85-7.79-39-25-43.31-52.52-2.66-17.12,2.56-35.78,13.63-48.7,9.78-11.4,23.15-17.43,38.67-17.43h.06c40.62,0,47.59,38.09,47.65,38.48a4.38,4.38,0,1,1-8.64,1.48h0c-.22-1.27-5.89-31.16-39-31.19h0c-12.89,0-24,5-32,14.37-9.31,10.86-13.87,27.21-11.63,41.64,3.79,24.25,15.63,38.71,37.28,45.5,21.14,6.64,43.48,1.69,43.71,1.64a4.38,4.38,0,0,1,1.94,8.55A103,103,0,0,1,197,514.8Z"/><path class="cls-12" d="M199.46,410.78c1.62,30.28,9.87,62.45,25.18,84.09-14,2.58-20.9,16.13-22.89,30.2a60.91,60.91,0,0,0,1.05,23.3c6.11,23.13,25.12,37,52,46.71,1.73.61,3.48,1.21,5.28,1.81a62.66,62.66,0,0,1-13.23-8.22c-14.36-11.52-24.19-28.75-25.07-42.24q0-.76-.06-1.5c0-.57,0-1.14,0-1.69s0-.92.06-1.36a34.69,34.69,0,0,1,11.86-24.25,50.07,50.07,0,0,1,18.43-10.34s-40.15-75.53.23-140.76c.33-.53.65-1.07,1-1.58,22.65-35.37,52.49-49,79.81-49.43h.18c35.34-.47,66.43,21.21,72.16,46.64a38.27,38.27,0,0,1,.95,8.39h.91c0-28.26,32.54-54.44,70.67-55,28-.44,59.06,12.93,82.44,49.43.34.51.66,1.05,1,1.58,40.38,65.23.24,140.76.24,140.76l.16,0a50.65,50.65,0,0,1,16.56,8.83c6.45,5.24,12.55,13.2,13.5,24.88a35.12,35.12,0,0,1,.14,3.89,43.73,43.73,0,0,1-3.95,16.33h0a74,74,0,0,1-17.27,24,64.58,64.58,0,0,1-17.14,11.61c29.73-9.75,50.83-23.9,57.34-48.52a61.55,61.55,0,0,0,.87-24.48c-2.21-13.64-9.09-26.52-22.71-29,15.31-21.64,23.55-53.81,25.19-84.09C619.48,315.6,543.76,236.27,448.28,220c0,0,0,0,0,0-8.55-2.7-22.36-7.22-40.79-13.64-21.93-7.63-37-23.87-43.27-31.74a4.06,4.06,0,0,0-6.59.35c-3.62,5.63-9.4,19.73-12.84,30.87a4.07,4.07,0,0,1-5.89,2.34c-4.13-2.35-10.47-10.25-16.47-14.87a4.05,4.05,0,0,0-6.17,1.53c-3.2,7.1-8.43,22.12-7.72,43.38C241.8,270.33,195.42,335.62,199.46,410.78Z"/><g class="cls-7"><path class="cls-8" d="M199.46,409.4c0,.07,0,.12,0,.19,3.66-67.42,48.61-128.77,117.06-160.12-.7-21.26,0-33,1.92-37.69,1-2.41,1.89-3.15,4-1.55,6,4.63,12.34,12.53,16.47,14.87a4.06,4.06,0,0,0,5.89-2.33c3.44-11.15,9.22-25.24,12.84-30.87a4.06,4.06,0,0,1,6.59-.35c6.3,7.86,21.34,24.11,43.27,31.73,18.43,6.43,32.24,10.94,40.79,13.65h0c89.35,15.26,161.38,85.69,166.1,172.66,0-.07,0-.13,0-.2,5.09-95.18-70.63-174.51-166.11-190.82,0,0,0,0,0,0-8.55-2.7-22.36-7.22-40.79-13.64-21.93-7.63-37-23.87-43.27-31.74a4.06,4.06,0,0,0-6.59.35c-3.62,5.63-9.4,19.73-12.84,30.87a4.07,4.07,0,0,1-5.89,2.34c-4.13-2.35-10.47-10.25-16.47-14.88a4.06,4.06,0,0,0-6.17,1.54c-3.2,7.1-8.43,22.12-7.72,43.38C241.8,269,195.42,334.24,199.46,409.4Z"/></g><path class="cls-10" d="M260.13,601.27a4.41,4.41,0,0,1-1.37-.22c-34.78-11.4-53.91-27.79-60.2-51.56-3.25-12.27-2.8-31.67,5.85-45.3a30,30,0,0,1,13.35-11.78c-12.8-20.64-21-49.89-22.68-81.4-2-36.95,7.94-73.28,28.71-105.06,19.84-30.37,48.48-55.17,82.82-71.73a4.38,4.38,0,1,1,3.81,7.89c-68.47,33-110.3,99.13-106.59,168.43,1.72,32.06,10.84,62.64,24.39,81.8l4,5.61-6.75,1.23c-5.61,1-10.19,4.29-13.62,9.7-6.84,10.79-7.57,27.82-4.77,38.36,5.53,20.92,22.32,34.94,54.45,45.48a4.38,4.38,0,0,1-1.36,8.55Z"/><path class="cls-10" d="M553.7,601.27a4.38,4.38,0,0,1-1.36-8.55c32.14-10.54,48.94-24.56,54.47-45.47,2.78-10.56,2.05-27.59-4.79-38.38-3.43-5.4-8-8.66-13.61-9.69L581.66,498l4-5.61c13.74-19.43,22.63-49.24,24.39-81.8,4.62-86.16-59.33-163.57-152.12-184.22h0l-.52-.11c-2.72-.61-5.53-1.18-8.61-1.72l-.41-.09a4.38,4.38,0,0,1,1.92-8.55l.1,0c3,.54,5.82,1.1,8.52,1.7l.43.08c45.71,10.08,87,34.56,116.25,68.93,30.26,35.56,45.6,79.75,43.2,124.43-1.7,31.53-9.89,60.77-22.68,81.4a29.94,29.94,0,0,1,13.34,11.76c8.65,13.63,9.1,33.05,5.86,45.32-6.28,23.77-25.42,40.15-60.21,51.56A4.32,4.32,0,0,1,553.7,601.27Z"/><path class="cls-6" d="M221.34,545a15,15,0,0,0,.49,1.44c2.17,5.94,11.52,28.69,25.07,42.24a43.67,43.67,0,0,0,7.95,6.41,27.51,27.51,0,0,0,3.37,1.81c2.53.83,5.13,1.62,7.77,2.38.85.25,1.69.48,2.53.71,13.94,3.83,21.57,7.1,30.89,10,7.45,2.29,16,4.32,29.68,6.13,31.07,4.11,58.32,7.81,74.36,7.81,24.84,0,67-4.62,108.29-15.56a342.89,342.89,0,0,0,51-17.6l0,0a84.13,84.13,0,0,0,8-5.42c8.49-6.46,15-14.4,17.27-24h0a33.61,33.61,0,0,0-.09-15.16c-.08-.38,3.27-3.24,3.18-3.6l-.21-.81c-3.18-12.49-7.83-20.45-12.57-25.53-6.56-7-13.28-8.52-16.56-8.82a11.58,11.58,0,0,0-2.06,0s39.22-75.54-1.15-140.77c-.33-.54-.66-1.06-1-1.58C535.05,329.66,505.31,316,478,315.51c-35.5-.62-66.78,21.12-72.53,46.65a37.6,37.6,0,0,0-1,8.38c0-28.38-32.84-54.67-71.2-55h-.18c-27.82-.2-58.54,13.24-81.72,49.43-.34.52-.66,1-1,1.58-40.37,65.23-.23,140.77-.23,140.77s-8.23.14-16.52,10.33c-4.2,5.15-8.43,12.87-11.61,24.44-.1.38-.21.78-.31,1.17C221.64,543.8,221.49,544.38,221.34,545Z"/><ellipse class="cls-9" cx="477.63" cy="544.92" rx="22.94" ry="12.75"/><ellipse class="cls-9" cx="334.72" cy="544.92" rx="22.94" ry="12.75"/><path class="cls-10" d="M308.51,242.55a4.37,4.37,0,0,1-4.37-4.24c-.73-22.15,4.76-37.9,8.1-45.32a8.45,8.45,0,0,1,12.85-3.21,95.78,95.78,0,0,1,8.78,8.09,56.64,56.64,0,0,0,6.83,6.23c3.29-10.55,9.08-25.1,13.22-31.55a8.45,8.45,0,0,1,13.71-.72c2.73,3.41,17.56,20.91,41.45,30.4,33.18,13.19,49.66,15.33,49.82,15.35a4.38,4.38,0,0,1-1,8.7c-.7-.08-17.58-2.21-52-15.9-25.21-10-41.17-28.3-44.77-32.73-3.31,5.38-8.78,18.65-12.12,29.43a8.44,8.44,0,0,1-12.23,4.86c-2.72-1.54-5.65-4.48-9.05-7.87a94.14,94.14,0,0,0-7.61-7.09c-3,6.88-7.82,21-7.16,41a4.37,4.37,0,0,1-4.24,4.52Z"/><path class="cls-10" d="M412.35,530.47a1.4,1.4,0,0,1-1.78-1.55c.43-3,1.81-8.27,6.23-9,5.85-.92,6.48,4.15,6,5.67-.62,1.76-2.1,2.87-5,3.48C416,529.49,413.86,530,412.35,530.47Z"/><path class="cls-10" d="M396.32,530.47a1.4,1.4,0,0,0,1.77-1.55c-.43-3-1.81-8.27-6.22-9-5.85-.92-6.49,4.15-6,5.67.61,1.76,2.09,2.87,5,3.48C392.71,529.49,394.8,530,396.32,530.47Z"/><path class="cls-10" d="M388.15,556.37a30,30,0,0,0,10,5.39,18.48,18.48,0,0,0,10.19,0c.8-.24,1.57-.59,2.37-.85.72-.44,1.48-.82,2.2-1.26s1.42-.95,2-1.55l.92-.91a5.39,5.39,0,0,0,.91-.94,27.33,27.33,0,0,0,5.1-9.92l0-.17a3.25,3.25,0,0,1,6.35.81,24.59,24.59,0,0,1-4.15,14.77,23.44,23.44,0,0,1-13.05,9.5l-2,.43a11.84,11.84,0,0,1-2,.31l-2.06.12-1,0c-.34,0-.68-.07-1-.1a22.47,22.47,0,0,1-4-.65,17.63,17.63,0,0,1-3.81-1.29,25.62,25.62,0,0,1-11.49-9.88,3,3,0,0,1,4.39-4Z"/><path class="cls-10" d="M406.31,628.23A434.6,434.6,0,0,1,301.6,615.49c-17.82-4.42-32.39-9.19-43.29-14.18-24.12-10.93-40.64-37.72-40.92-55.88C217,522.8,233.9,510.15,246,505.19a188.08,188.08,0,0,1-13.23-42.59c-6.73-36.46-1.26-70.33,15.83-97.94l.32-.51c.24-.4.49-.79.74-1.18,14.43-22.52,32.5-38,53.68-45.81a88.91,88.91,0,0,1,56.31-2c22.42,6.56,39.8,20.95,47.23,37.79,7.43-16.84,24.81-31.23,47.23-37.79a88.83,88.83,0,0,1,56.31,2c21.18,7.87,39.25,23.3,53.71,45.86.34.51.7,1.1,1.05,1.68,17.06,27.57,22.54,61.44,15.82,97.9a187.44,187.44,0,0,1-13.24,42.59c12.15,5,29,17.61,28.65,40.24-.28,18.16-16.79,44.94-40.94,55.89-11.4,5-26.52,9.89-44.95,14.39A439.68,439.68,0,0,1,406.31,628.23ZM334.39,320.42c-21.59,0-52.33,8.29-77.34,47.33-.24.36-.43.67-.62,1l-.34.55c-38.53,62.25-.47,135.65-.08,136.38l2.58,4.87L253.27,512c-1.11.31-27.51,7.81-27.11,33.34.23,15.15,15,38.61,35.78,48,10.43,4.77,24.48,9.36,41.77,13.65a429.59,429.59,0,0,0,204.77.21c17.93-4.38,32.55-9,43.45-13.87,20.77-9.42,35.52-32.87,35.75-48,.4-25.54-26-33-27.12-33.34l-5.29-1.44,2.56-4.85c.39-.73,38.44-74.13-.09-136.4-.31-.51-.61-1-.92-1.47-36.82-57.47-86-48.37-100.21-44.21-26,7.61-44.85,27.55-44.85,47.4a4.39,4.39,0,0,1-4.39,4.38l-.45,0-.46,0a4.38,4.38,0,0,1-4.38-4.38c0-19.85-18.86-39.78-44.85-47.4A82.68,82.68,0,0,0,334.39,320.42Z"/><g class="cls-11"><path class="cls-10" d="M202.8,552.62c6.11,23.13,25.12,37,52,46.71a28.94,28.94,0,0,0,3.37,1.81c2.53.83,5.13,1.62,7.77,2.37.85.26,1.69.49,2.53.72,25.08,6.87,29.72,12,60.57,16.08,31.07,4.11,58.32,7.82,74.36,7.82,35.44,0,106-9.41,159.34-33.17l0,0a82.22,82.22,0,0,0,8-5.41,64.58,64.58,0,0,1-17.14,11.61c29.73-9.75,50.83-23.9,57.34-48.52a61.55,61.55,0,0,0,.87-24.48,124.49,124.49,0,0,1-20,17.15c-.31.21-.61.43-.93.64-26.63,18.46-76.42,41.25-164.1,47.68a282.87,282.87,0,0,1-41.17,0c-87.13-6.38-136.85-28.9-163.62-47.29l-.25-.19a129.17,129.17,0,0,1-20.1-16.81A60.91,60.91,0,0,0,202.8,552.62Z"/></g><path class="cls-8" d="M332.68,425.14c-7.91-.58-15,2.69-20.47,8.64-7,7.59-11.18,19.55-10.73,33.32.57,17.79,8.76,33.72,20.09,41.62a28.11,28.11,0,0,0,14,5.24c18,1.35,32-17.44,31.2-42S350.7,426.49,332.68,425.14Z"/><path class="cls-13" d="M337.4,515.39c-.65,0-1.29,0-1.95-.07a29.13,29.13,0,0,1-14.66-5.48c-12-8.36-20.11-25.12-20.68-42.69-.44-13.64,3.6-26.14,11.09-34.29,5.89-6.45,13.56-9.67,21.58-9.08h0c18.67,1.4,34.53,23,35.34,48.17.48,14.65-4.1,27.7-12.56,35.81A25.86,25.86,0,0,1,337.4,515.39Zm-6.56-88.95c-6.6,0-12.66,2.83-17.62,8.26-7,7.64-10.8,19.43-10.38,32.36.55,16.74,8.2,32.65,19.51,40.54a26.41,26.41,0,0,0,13.31,5,23,23,0,0,0,18-6.8c7.78-7.46,12.16-20.08,11.72-33.75-.77-23.81-15.49-44.24-32.82-45.54C332,426.46,331.42,426.44,330.84,426.44Z"/><path class="cls-14" d="M332.68,425.14c-7.91-.58-15,2.69-20.47,8.64a39.86,39.86,0,0,0-1.92,4.79c-1.23,3.74-1.64,9.08,1.14,11.64,2.39,2.2,5.43.75,8.23,1,4.61.33,9,6.19,9,12.17s-4.16,10.91-8.77,10.23c-3.21-.47-6.81-3.14-9.37-1-1.88,1.59-2.13,5.09-1.86,8.14A47.63,47.63,0,0,0,321,508.06c.2.23.41.45.62.66a28.11,28.11,0,0,0,14,5.24c18,1.35,32-17.44,31.2-42S350.7,426.49,332.68,425.14Z"/><ellipse class="cls-15" cx="342.2" cy="473.15" rx="26.46" ry="38.93" transform="translate(-56.81 46.81) rotate(-7.23)"/><path class="cls-8" d="M319.94,449.87c-2.8-.21-5.84,1.24-8.23-1-2.78-2.56-2.37-7.9-1.14-11.64a38.27,38.27,0,0,1,1.92-4.79c-7,7.59-11.18,19.55-10.73,33.32.57,17.79,8.75,33.72,20.09,41.62q-.32-.32-.63-.66A47.62,47.62,0,0,1,309,479.43c-.27-3.05,0-6.55,1.86-8.14,2.56-2.16,6.16.51,9.37,1,4.61.68,8.84-4.26,8.76-10.23S324.55,450.2,319.94,449.87Z"/><path class="cls-15" d="M330.88,425.07c.59,0,1.19,0,1.8.07,18,1.35,33.28,22.33,34.07,46.85.77,23.7-12.23,42-29.37,42q-.9,0-1.83-.06a28.11,28.11,0,0,1-14-5.24c-11.33-7.9-19.52-23.83-20.09-41.62-.45-13.77,3.76-25.73,10.73-33.32,5-5.5,11.48-8.71,18.67-8.71m0-8.77c-9.4,0-18.33,4.11-25.14,11.56-8.78,9.56-13.53,24-13,39.53.65,20.13,9.79,38.73,23.84,48.53a36.44,36.44,0,0,0,18.35,6.78c.82.06,1.66.1,2.48.1a33.88,33.88,0,0,0,24.36-10.74c9.28-9.59,14.3-24.3,13.78-40.35-.95-29.31-19.48-53.61-42.19-55.32-.82-.06-1.65-.09-2.45-.09Z"/><path class="cls-8" d="M480,423.14c7.88-.79,15.09,2.28,20.69,8.08,7.18,7.4,11.71,19.25,11.63,33-.09,17.8-7.84,33.94-19,42.15A27.85,27.85,0,0,1,479.51,512c-18,1.84-32.46-16.56-32.32-41.1S462,425,480,423.14Z"/><path class="cls-13" d="M477,513.5a26,26,0,0,1-17.67-7.15c-8.67-7.87-13.6-20.79-13.52-35.45.13-25.18,15.39-47.21,34-49.12h0c8-.81,15.75,2.21,21.81,8.5,7.71,7.94,12.09,20.33,12,34-.09,17.58-7.75,34.56-19.51,43.24a29.09,29.09,0,0,1-14.51,5.87A26.09,26.09,0,0,1,477,513.5Zm3.11-89c-17.29,1.77-31.45,22.59-31.57,46.41-.07,13.68,4.65,26.17,12.63,33.42a23.06,23.06,0,0,0,18.19,6.31,26.54,26.54,0,0,0,13.16-5.34c11.09-8.2,18.32-24.31,18.41-41.07.07-12.93-4-24.61-11.25-32.05-5.47-5.68-12.42-8.41-19.57-7.68Z"/><path class="cls-14" d="M480,423.14c7.88-.79,15.09,2.28,20.69,8.08a38,38,0,0,1,2.05,4.74c1.33,3.71,1.88,9-.83,11.67-2.33,2.26-5.4.9-8.2,1.18-4.59.45-8.79,6.43-8.71,12.41s4.46,10.79,9,10c3.2-.55,6.72-3.32,9.34-1.24,1.92,1.54,2.27,5,2.09,8.09A47.65,47.65,0,0,1,494,505.72c-.2.23-.4.46-.61.67A27.85,27.85,0,0,1,479.51,512c-18,1.84-32.46-16.56-32.32-41.1S462,425,480,423.14Z"/><ellipse class="cls-15" cx="471.76" cy="471.4" rx="38.93" ry="26.46" transform="translate(-43.97 894.24) rotate(-84.33)"/><path class="cls-8" d="M493.38,447.52c2.79-.28,5.87,1.08,8.2-1.18,2.71-2.63,2.16-8,.82-11.67a39.55,39.55,0,0,0-2-4.74c7.17,7.4,11.7,19.24,11.63,33-.09,17.8-7.84,33.94-19,42.15.21-.22.41-.44.61-.67a47.64,47.64,0,0,0,11.49-27.66c.18-3.06-.16-6.55-2.08-8.09-2.62-2.08-6.14.68-9.34,1.24-4.59.8-8.95-4-9-10S488.78,448,493.38,447.52Z"/><path class="cls-15" d="M482.43,423c6.92,0,13.23,3,18.24,8.2,7.18,7.4,11.71,19.25,11.63,33-.09,17.8-7.84,33.94-18.95,42.15A27.92,27.92,0,0,1,479.51,512a23,23,0,0,1-2.47.13c-16.82,0-30-17.82-29.85-41.23C447.31,446.37,462,425,480,423.14c.82-.08,1.64-.12,2.45-.12m0-8.77h0a30.81,30.81,0,0,0-3.33.17c-22.67,2.32-40.54,27.11-40.69,56.44-.08,15.81,5.2,30.23,14.49,39.58,6.81,6.84,15.16,10.46,24.14,10.46,1.11,0,2.25-.06,3.36-.17a36.41,36.41,0,0,0,18.18-7.3c13.76-10.16,22.39-29,22.5-49.14.08-15.57-5.06-29.84-14.11-39.17a34.07,34.07,0,0,0-24.54-10.87Z"/></g><text class="cls-16" transform="translate(902.36 323.15)">MINI APE</text><text class="cls-17" transform="translate(885.89 342.06) scale(1.03 0.87)">MINI APE</text><text class="cls-17" transform="translate(902.36 323.15)">MINI APE</text><path class="cls-18" d="M1159.69,88.22l-14.82,236.54L1071.39,328l.65-124.71-33.2,100.54h-28.36L985,213.9l-.32,104.41-74.44,2.26,3.22-222.68,82.82-3.23,32.88,106.67L1073,88.22Z"/><path class="cls-18" d="M1258.47,96.27l-17.73,219.47-68,3.54V100.79Z"/><path class="cls-18" d="M1488.72,92.08l-11.6,218.5-84.43,7.73-45.12-117-7.09,119.24H1268l5.8-228.49,80.57-3.86,55.75,116,2.58-109.57Z"/><path class="cls-18" d="M1588.79,96.27l-17.73,219.47-68,3.54V100.79Z"/><path class="cls-18" d="M1867.55,309.29l-79.93,10.31L1778,283.19h-36.74l-8.06,36.41L1651,311.55l64.13-214.63,89.59-4.51Zm-95.4-75.41-12.24-56.07L1748,233.88Z"/><path class="cls-18" d="M2058.65,168.14q0,15.63-4.68,27.71A67.26,67.26,0,0,1,2041.16,217a77.14,77.14,0,0,1-19.09,15.31,119.23,119.23,0,0,1-23.44,10.23,156,156,0,0,1-25.87,5.8,210,210,0,0,1-26.26,2V325.4h-75.09q0-36.88.16-73.47t.49-73.8q.32-19.65.16-39.32t.8-39.64A299.3,299.3,0,0,1,1914.27,90a289.57,289.57,0,0,1,42.54-3.06,155.09,155.09,0,0,1,24.82,2,120.48,120.48,0,0,1,23.76,6.37,105.69,105.69,0,0,1,21.11,10.87,73,73,0,0,1,16.84,15.55,72.29,72.29,0,0,1,11.2,20.55A76.59,76.59,0,0,1,2058.65,168.14Zm-71.54,5.48q0-10.47-6.37-16.36t-16.52-5.88a45.22,45.22,0,0,0-7,.57c-2.41.37-4.7.83-6.84,1.37l-1.94,47.05a31.63,31.63,0,0,0,4.35.32h4.35a32.94,32.94,0,0,0,11.2-1.94,29.83,29.83,0,0,0,9.59-5.55,28.17,28.17,0,0,0,6.69-8.54A24.1,24.1,0,0,0,1987.11,173.62Z"/><path class="cls-18" d="M2220.1,90.8q-1,15.14-1.77,30t-2.1,30l-68.32,3.54-1.61,20.3h48l-3.54,50-48.34,1.61-1.61,23.52h68.32q-1,17.73-2,35.21t-1.85,35.05l-138.9,3.22,5.16-232.35Z"/><text class="cls-16" transform="translate(902.36 667.98)"><tspan class="cls-19">C</tspan><tspan x="167.9" y="0">OIN</tspan></text><text class="cls-17" transform="translate(895.02 686.89) scale(1.03 0.87)"><tspan class="cls-19">C</tspan><tspan x="167.9" y="0">OIN</tspan></text><text class="cls-17" transform="translate(902.36 667.98)"><tspan class="cls-19">C</tspan><tspan x="167.9" y="0">OIN</tspan></text><path class="cls-20" d="M1070.26,441.42l-9,68a57,57,0,0,0-9.35-1.77,91.29,91.29,0,0,0-9.34-.48,80.67,80.67,0,0,0-22.72,3.14,56.47,56.47,0,0,0-19.1,9.59A47.11,47.11,0,0,0,987.52,536q-4.92,9.68-4.91,22.72a36.06,36.06,0,0,0,2.66,14.5,26.92,26.92,0,0,0,7.49,10.15,31.28,31.28,0,0,0,11.44,6,51.42,51.42,0,0,0,14.5,1.94,63.3,63.3,0,0,0,12.41-1.29,105.75,105.75,0,0,0,12.73-3.39,117.87,117.87,0,0,0,12.24-4.83c4-1.82,7.63-3.71,11-5.64l-6.44,75.73a100.72,100.72,0,0,1-13.62,5.72q-7.34,2.5-15.07,4.35a139.57,139.57,0,0,1-15.46,2.82,118.69,118.69,0,0,1-14.83,1,95.49,95.49,0,0,1-89.51-59.54,99.71,99.71,0,0,1-7.49-38.75,167.72,167.72,0,0,1,7.9-52,127.09,127.09,0,0,1,23.2-42.78,109,109,0,0,1,37.94-29q22.65-10.64,52.13-10.63a152.16,152.16,0,0,1,22.8,1.77A75.41,75.41,0,0,1,1070.26,441.42Z"/><path class="cls-20" d="M1277.64,554.22a117.17,117.17,0,0,1-3.38,28.28,111,111,0,0,1-9.75,25.54A106,106,0,0,1,1249,629.87a98.54,98.54,0,0,1-20.46,17,99.24,99.24,0,0,1-53.1,15,101.24,101.24,0,0,1-27.63-3.7,104.63,104.63,0,0,1-24.57-10.4,98.4,98.4,0,0,1-20.71-16.11,99.74,99.74,0,0,1-15.79-20.95A107.79,107.79,0,0,1,1076.63,586a103.53,103.53,0,0,1-3.63-27.55,112,112,0,0,1,3.39-27.48,110.87,110.87,0,0,1,9.75-25.37,109.55,109.55,0,0,1,15.38-21.92,101.36,101.36,0,0,1,20.23-17.24A97.09,97.09,0,0,1,1146,455.12a93.05,93.05,0,0,1,27.55-4q23.35,0,42.62,7.25a90.32,90.32,0,0,1,54,53.26Q1277.64,530.7,1277.64,554.22Zm-71.54,4.19a45.16,45.16,0,0,0-2-13.46,36.78,36.78,0,0,0-5.88-11.6,30.3,30.3,0,0,0-9.58-8.22,26.93,26.93,0,0,0-13.14-3.14,32.12,32.12,0,0,0-13.53,2.74,31,31,0,0,0-10.23,7.49,32.81,32.81,0,0,0-6.53,11.12,39.87,39.87,0,0,0-2.26,13.46,49,49,0,0,0,1.94,13.53,40.2,40.2,0,0,0,5.8,12.25,30.86,30.86,0,0,0,9.59,8.86,25.65,25.65,0,0,0,13.29,3.38,30.27,30.27,0,0,0,13.61-3,30.74,30.74,0,0,0,10.24-8.05,36.9,36.9,0,0,0,6.44-11.69A41.91,41.91,0,0,0,1206.1,558.41Z"/><path class="cls-20" d="M1375.93,441.1l-17.72,219.46-68,3.55V445.61Z"/><path class="cls-20" d="M1606.19,436.91l-11.6,218.5-84.44,7.73-45.11-117L1458,665.4h-72.51l5.8-228.49,80.56-3.86,55.76,116,2.57-109.57Z"/></g></g></svg>